<svg width="28" height="28" viewBox="0 0 512 512" fill="none" xmlns="http://www.w3.org/2000/svg">
<path fill-rule="evenodd" clip-rule="evenodd" d="M464.351 339.649C464.351 382.885 429.181 418 386 418L127.472 416.132C84.2909 416.132 49.1199 381.016 49.1199 337.781V174.219C49.1103 160.284 52.8433 146.603 59.9289 134.604L185.357 260.032C204.122 278.852 229.251 289.222 256.027 289.222C282.748 289.222 307.877 278.852 326.642 260.032L452.07 134.604C459.156 146.603 462.889 160.284 462.879 174.219V337.781L464.351 339.649ZM384.528 95.868H127.472C109.64 95.868 93.1789 101.903 80.0109 111.944L206.701 238.689C219.815 251.747 237.317 258.99 256.027 258.99C274.682 258.99 292.185 251.747 305.298 238.689L431.988 111.944C418.821 101.903 402.361 95.868 384.528 95.868ZM384.528 65.636H127.472C67.6109 65.636 18.8879 114.359 18.8879 174.22V337.782C18.8879 397.698 67.6109 446.366 127.472 446.366H384.528C444.389 446.366 493.112 397.698 493.112 337.782V174.219C493.112 114.358 444.389 65.636 384.528 65.636Z" fill="black"/>
<path d="M391.028 306.694L391.027 306.694L357.694 340.027L357.682 340.04L357.67 340.052C355.787 342.001 354.746 344.611 354.769 347.321C354.793 350.03 355.88 352.622 357.796 354.538C359.711 356.454 362.303 357.54 365.013 357.564C367.722 357.587 370.332 356.546 372.281 354.664L372.294 354.652L372.306 354.639L388 338.945V380.667C388 383.407 389.089 386.036 391.027 387.973C392.964 389.911 395.593 391 398.333 391C401.074 391 403.702 389.911 405.64 387.973C407.578 386.036 408.667 383.407 408.667 380.667V338.945L424.361 354.639L424.373 354.652L424.386 354.664C426.334 356.546 428.945 357.587 431.654 357.564C434.363 357.54 436.955 356.454 438.871 354.538C440.787 352.622 441.874 350.03 441.897 347.321C441.921 344.611 440.879 342.001 438.997 340.052L438.985 340.04L438.973 340.027L405.639 306.694L405.639 306.694C403.701 304.757 401.073 303.668 398.333 303.668C395.593 303.668 392.965 304.757 391.028 306.694ZM399.5 262C351.715 262 313 300.961 313 349C313 397.039 351.715 436 399.5 436C447.285 436 486 397.039 486 349C486 300.961 447.285 262 399.5 262ZM333.9 349C333.9 331.492 340.814 314.703 353.118 302.327C365.421 289.951 382.106 283 399.5 283C416.894 283 433.579 289.951 445.882 302.327C458.186 314.703 465.1 331.492 465.1 349C465.1 366.508 458.186 383.297 445.882 395.673C433.579 408.049 416.894 415 399.5 415C382.106 415 365.421 408.049 353.118 395.673C340.814 383.297 333.9 366.508 333.9 349Z" fill="#226CFF" stroke="#226CFF" stroke-width="4"/>
</svg>
